<svg id="svg" version="1.1" xmlns="http://www.w3.org/2000/svg" xmlns:xlink="http://www.w3.org/1999/xlink" width="400" height="165.65542542683787" viewBox="0, 0, 400,165.65542542683787"><g id="svgg"><path id="path0" d="M11.000 72.417 L 11.000 130.167 25.583 130.167 L 40.166 130.167 40.208 100.054 L 40.250 69.941 41.503 71.096 C 42.192 71.730,43.233 72.662,43.816 73.167 C 44.399 73.671,45.080 74.271,45.330 74.500 C 48.185 77.118,50.111 78.854,50.970 79.583 C 51.294 79.858,51.716 80.233,51.909 80.417 C 52.101 80.600,52.594 81.044,53.004 81.404 C 53.414 81.764,54.425 82.672,55.250 83.422 C 57.051 85.059,60.003 87.708,61.559 89.083 C 62.181 89.633,62.966 90.336,63.303 90.645 C 63.641 90.954,64.357 91.592,64.896 92.062 C 65.435 92.532,66.222 93.244,66.646 93.643 C 67.070 94.043,67.857 94.755,68.396 95.226 C 68.935 95.698,69.581 96.271,69.832 96.500 C 70.082 96.729,70.873 97.442,71.588 98.083 C 72.303 98.725,72.969 99.326,73.069 99.419 C 73.169 99.512,74.675 100.861,76.417 102.416 C 78.158 103.971,79.621 105.283,79.667 105.331 C 79.780 105.450,82.448 107.827,83.145 108.430 C 83.454 108.698,83.979 109.167,84.312 109.473 C 84.645 109.780,85.357 110.417,85.896 110.890 C 86.917 111.786,87.142 111.990,88.777 113.500 C 89.323 114.004,90.328 114.904,91.010 115.500 C 91.692 116.096,92.700 116.999,93.250 117.507 C 93.800 118.014,94.888 118.989,95.667 119.673 C 96.446 120.357,97.121 120.960,97.167 121.012 C 97.251 121.109,98.081 121.851,100.324 123.833 C 100.998 124.429,101.995 125.326,102.538 125.825 C 103.082 126.325,103.690 126.873,103.888 127.042 C 104.087 127.212,104.805 127.853,105.482 128.467 C 106.160 129.081,106.866 129.715,107.050 129.875 C 107.344 130.132,107.780 130.167,110.692 130.167 L 114.000 130.167 114.000 72.417 L 114.000 14.667 99.334 14.667 L 84.668 14.667 84.625 44.825 L 84.583 74.983 83.734 74.200 C 83.268 73.769,82.332 72.929,81.655 72.333 C 80.978 71.737,79.934 70.800,79.336 70.250 C 78.738 69.700,77.656 68.725,76.932 68.083 C 76.208 67.442,75.390 66.706,75.114 66.449 C 74.837 66.192,74.164 65.592,73.618 65.116 C 73.071 64.640,72.418 64.060,72.166 63.827 C 71.914 63.595,71.123 62.882,70.409 62.244 C 69.695 61.606,68.953 60.933,68.759 60.750 C 68.566 60.567,67.810 59.893,67.079 59.252 C 66.348 58.612,65.637 57.974,65.500 57.834 C 65.362 57.694,64.575 56.981,63.750 56.248 C 62.925 55.516,62.212 54.878,62.167 54.831 C 62.121 54.784,61.447 54.184,60.668 53.498 C 59.890 52.811,58.840 51.868,58.335 51.402 C 57.380 50.520,56.317 49.569,55.355 48.736 C 55.046 48.469,54.521 47.999,54.188 47.693 C 53.855 47.387,53.141 46.749,52.600 46.277 C 52.059 45.804,51.455 45.267,51.259 45.083 C 50.472 44.349,49.002 43.018,47.667 41.833 C 46.218 40.547,44.481 38.983,44.333 38.831 C 44.288 38.784,43.612 38.184,42.833 37.498 C 42.054 36.811,41.379 36.207,41.333 36.154 C 41.225 36.030,39.689 34.661,38.355 33.500 C 37.776 32.996,37.027 32.321,36.691 32.000 C 36.355 31.679,35.697 31.079,35.227 30.667 C 34.306 29.857,32.062 27.843,31.329 27.167 C 31.080 26.938,30.623 26.530,30.313 26.261 C 30.003 25.993,29.039 25.130,28.171 24.345 C 27.302 23.559,26.291 22.654,25.925 22.333 C 25.558 22.012,24.807 21.335,24.254 20.827 C 23.702 20.319,22.613 19.344,21.833 18.660 C 21.054 17.977,20.042 17.072,19.583 16.650 C 19.125 16.228,18.441 15.609,18.063 15.275 L 17.376 14.667 14.188 14.667 L 11.000 14.667 11.000 72.417 M136.333 72.595 L 136.333 130.190 157.042 130.124 C 171.801 130.077,178.181 130.001,179.250 129.860 C 180.075 129.750,181.500 129.581,182.417 129.483 C 183.333 129.385,184.721 129.196,185.500 129.063 C 186.279 128.930,187.367 128.745,187.917 128.653 C 189.183 128.440,190.560 128.181,191.417 127.995 C 192.728 127.709,196.424 126.807,196.833 126.672 C 197.063 126.596,197.813 126.370,198.500 126.168 C 200.015 125.723,200.727 125.484,202.250 124.910 C 202.892 124.668,203.614 124.409,203.855 124.336 C 204.096 124.262,204.546 124.089,204.855 123.952 C 205.164 123.815,205.717 123.590,206.083 123.451 C 209.351 122.214,217.374 117.905,218.637 116.709 C 218.758 116.594,218.921 116.500,219.000 116.500 C 219.079 116.500,219.242 116.405,219.363 116.290 C 219.484 116.174,219.808 115.937,220.083 115.763 C 223.064 113.879,226.120 110.868,229.061 106.917 C 231.998 102.972,233.684 99.907,235.847 94.583 C 236.034 94.122,236.908 91.410,237.162 90.500 C 237.278 90.087,237.435 89.563,237.511 89.333 C 238.119 87.514,238.897 83.020,239.333 78.805 C 239.549 76.721,239.549 68.612,239.333 66.528 C 238.897 62.314,238.119 57.820,237.511 56.000 C 237.435 55.771,237.277 55.246,237.160 54.833 C 235.659 49.515,233.243 44.339,230.198 39.917 C 229.503 38.908,228.893 38.046,228.842 38.000 C 228.790 37.954,228.543 37.642,228.293 37.306 C 228.043 36.970,227.743 36.594,227.628 36.471 C 227.512 36.348,226.967 35.726,226.417 35.089 C 225.038 33.493,223.424 31.875,222.333 30.994 C 221.829 30.588,221.379 30.213,221.333 30.163 C 219.970 28.668,211.445 23.473,207.829 21.933 C 207.419 21.758,206.596 21.393,206.000 21.122 C 202.930 19.726,198.049 18.115,194.500 17.328 C 193.996 17.217,193.358 17.057,193.083 16.973 C 191.782 16.576,187.389 15.827,184.500 15.508 C 180.193 15.034,178.362 14.999,157.792 15.000 L 136.333 15.000 136.333 72.595 M257.333 72.583 L 257.333 130.167 297.167 130.167 L 337.000 130.167 337.000 116.083 L 337.000 102.000 311.333 102.000 L 285.667 102.000 285.667 58.500 L 285.667 15.000 271.500 15.000 L 257.333 15.000 257.333 72.583 M180.500 43.413 C 183.585 43.799,185.280 44.116,187.227 44.668 C 189.354 45.272,190.747 45.724,190.908 45.863 C 190.995 45.939,191.165 46.000,191.285 46.000 C 191.792 46.000,195.605 47.891,197.445 49.055 C 199.616 50.428,200.493 51.134,202.335 52.989 C 206.184 56.862,208.380 61.001,209.505 66.500 C 209.721 67.558,210.172 72.291,210.080 72.542 C 210.038 72.656,209.928 73.237,209.834 73.833 C 209.368 76.820,208.629 79.456,207.652 81.623 C 207.477 82.012,207.333 82.382,207.333 82.445 C 207.333 84.106,202.504 90.560,199.187 93.334 C 198.693 93.746,198.192 94.177,198.073 94.292 C 197.954 94.406,197.777 94.500,197.679 94.500 C 197.580 94.500,197.500 94.570,197.500 94.655 C 197.500 94.741,197.350 94.858,197.168 94.916 C 196.985 94.974,196.741 95.111,196.626 95.220 C 196.297 95.530,194.523 96.573,193.333 97.156 C 192.737 97.447,192.137 97.748,192.000 97.824 C 191.862 97.899,191.563 98.037,191.333 98.130 C 191.104 98.223,190.638 98.422,190.297 98.571 C 189.672 98.846,188.003 99.418,187.083 99.672 C 181.667 101.170,177.606 101.759,171.564 101.924 L 167.545 102.034 167.449 101.642 C 167.397 101.426,167.300 88.181,167.235 72.208 L 167.115 43.167 172.849 43.170 C 176.819 43.173,179.173 43.247,180.500 43.413 " stroke="none" fill="#fcfcfc" fill-rule="evenodd"></path><path id="path1" d="M366.750 100.176 C 363.931 100.780,362.881 101.137,361.000 102.131 C 348.035 108.989,346.946 126.780,359.000 134.816 C 361.156 136.253,362.790 136.991,365.167 137.602 C 372.785 139.558,381.307 136.180,385.698 129.463 C 392.563 118.963,387.602 104.956,375.590 100.924 C 373.091 100.085,368.851 99.726,366.750 100.176 " stroke="none" fill="#0464fc" fill-rule="evenodd"></path><path id="path2" d="" stroke="none" fill="#bc100fc" fill-rule="evenodd"></path><path id="path3" d="" stroke="none" fill="#bc100fc" fill-rule="evenodd"></path><path id="path4" d="" stroke="none" fill="#bc100fc" fill-rule="evenodd"></path></g></svg>