<?xml version="1.0" encoding="utf-8"?>
<!-- Svg Vector Icons : http://www.onlinewebfonts.com/icon -->
<!DOCTYPE svg PUBLIC "-//W3C//DTD SVG 1.1//EN" "http://www.w3.org/Graphics/SVG/1.1/DTD/svg11.dtd">
<svg version="1.1" xmlns="http://www.w3.org/2000/svg" xmlns:xlink="http://www.w3.org/1999/xlink" x="0px" y="0px" viewBox="0 0 1000 1000" enable-background="new 0 0 1000 1000" xml:space="preserve">
<metadata> Svg Vector Icons : http://www.onlinewebfonts.com/icon </metadata>
<g><g id="_x35_151e0c8492e5103c096af88a51eafb7"><path d="M575.7,621.9c1.6,7.9,2.4,21.8,2.4,41.6v155.3h-42.8V665.1c0-17.4-1.7-30.5-5-39.1c-3.3-8.6-9.2-15.5-17.7-20.7c-8.5-5.1-18.4-7.7-29.9-7.7c-18.2,0-34,5.8-47.2,17.4c-13.2,11.6-19.9,33.5-19.9,65.9v138h-42.8V566.2h38.5v35.9c18.6-27.8,45.4-41.6,80.4-41.6c15.2,0,29.2,2.7,42,8.2c12.8,5.5,22.3,12.6,28.7,21.5C568.7,599.1,573.2,609.6,575.7,621.9z M990,820.4c-12.1,2.5-22.8,3.8-32.4,3.8c-15.5,0-27.6-2.5-36.2-7.4c-8.6-4.9-14.6-11.4-18.1-19.4c-3.5-8-5.2-24.9-5.2-50.5V594.3h-93c0.2,0.2,0.4,0.4,0.7,0.7c21.4,23,32.1,55.3,32.1,97.1c0,2.5-0.1,6.3-0.2,11.4H649.4c1.6,27.8,9.4,49,23.5,63.8c14.1,14.7,31.7,22.1,52.8,22.1c15.7,0,29.1-4.1,40.2-12.4c11.1-8.2,19.9-21.4,26.4-39.5l44.2,5.5c-7,25.9-19.9,45.9-38.8,60.2c-18.9,14.3-43,21.4-72.3,21.4c-37,0-66.3-11.4-87.9-34.1c-21.6-22.8-32.5-54.7-32.5-95.7c0-42.5,10.9-75.5,32.8-99c21.9-23.5,50.3-35.2,85.2-35.2c4.2,0,8.3,0.2,12.4,0.5h162.7v-54.8h42.6V561h43.1v33.3h-43.1v154.9c0,12.2,0.8,20.1,2.3,23.6c1.5,3.5,4,6.3,7.4,8.3c3.4,2.1,8.3,3.1,14.6,3.1c4.8,0,11-0.6,18.8-1.7L990,820.4z M792.8,668.2c-1.9-21.3-7.3-37.2-16.2-47.8c-13.6-16.5-31.3-24.7-53-24.7c-19.7,0-36.2,6.6-49.6,19.7c-13.4,13.2-20.8,30.8-22.2,52.8H792.8z M311.8,767.4c-7.7,0-14.3,2.8-19.7,8.4c-5.4,5.6-8.1,12.3-8.1,20.2c0,7.7,2.7,14.4,8.1,20.1c5.4,5.6,12,8.5,19.7,8.5c7.9,0,14.7-2.8,20.3-8.5c5.6-5.6,8.3-12.3,8.3-20.1c0-7.8-2.8-14.5-8.3-20.1C326.5,770.2,319.8,767.4,311.8,767.4z M586.4,521.5c-22.2,9.8-50.2,14.6-84,14.6c-59.3,0-100.4-11.4-123.2-34.3c-0.1-0.1-0.2-0.2-0.3-0.3l10.7,28.6H276.8l-17.5-57.6H137l-17,57.6H10l131.1-348.7h117.5l87.6,233l96.8-6.1c2.2,16.7,6.7,29.3,13.6,38.1c11.1,14.1,27,21.2,47.6,21.2c15.4,0,27.2-3.6,35.6-10.8c8.3-7.2,12.5-15.6,12.5-25.1c0-9-4-17.1-11.9-24.3c-7.9-7.1-26.3-13.9-55.2-20.2c-47.3-10.6-81-24.7-101.1-42.3c-20.3-17.6-30.4-40-30.4-67.3c0-17.9,5.2-34.9,15.6-50.8c10.4-15.9,26-28.5,46.9-37.6c20.9-9.1,49.4-13.7,85.8-13.7c44.6,0,78.5,8.3,101.9,24.9c23.4,16.6,37.3,42.9,41.8,79.1l-101.6,5.9c-2.7-15.7-8.4-27.1-17-34.3c-8.6-7.1-20.6-10.7-35.8-10.7c-12.5,0-22,2.7-28.3,8c-6.3,5.3-9.5,11.8-9.5,19.4c0,5.6,2.6,10.6,7.9,15c5.1,4.6,17.1,8.9,36.2,12.8c47.1,10.2,80.8,20.4,101.2,30.8c20.4,10.4,35.2,23.3,44.5,38.7c4.8,7.9,8.3,16.2,10.6,25.1V181.4h179.1c39,0,68.2,9.3,87.7,27.8c19.4,18.6,29.1,45,29.1,79.2c0,35.2-10.6,62.7-31.8,82.5c-21.2,19.8-53.5,29.7-96.9,29.7h-59v129.4H653.5v-86c-3,12.1-8.1,23.5-15.2,34.4C625.9,497.4,608.6,511.7,586.4,521.5z M761.7,330.1h26.4c20.8,0,35.4-3.6,43.8-10.8c8.4-7.2,12.6-16.4,12.6-27.7c0-10.9-3.6-20.2-10.9-27.8c-7.3-7.6-21-11.4-41.2-11.4h-30.7V330.1z M237,397.2l-38.5-125.4l-38.1,125.4H237z"/></g></g>
</svg>