<svg xmlns="http://www.w3.org/2000/svg" viewBox="0 0 300 61.26"><defs><style>.cls-1{isolation:isolate;}.cls-2{mix-blend-mode:multiply;}.cls-3,.cls-4{fill:#007ec5;}.cls-3{fill-rule:evenodd;}</style></defs><title>Logo Guias Azul</title><g class="cls-1"><g id="Capa_1" data-name="Capa 1"><g class="cls-2"><path class="cls-3" d="M30.63,0A30.63,30.63,0,1,1,0,30.63,30.63,30.63,0,0,1,30.63,0Zm9.25,30.43h4.65V43.65a18.15,18.15,0,0,1-5.86,3.2,22,22,0,0,1-7,1.11,19,19,0,0,1-9.25-2.25A16.75,16.75,0,0,1,16,39.51a17.08,17.08,0,0,1-2.35-8.88A17.24,17.24,0,0,1,16,21.72a16.48,16.48,0,0,1,6.49-6.2A19.39,19.39,0,0,1,31.8,13.3a19.59,19.59,0,0,1,7.38,1.33,15.1,15.1,0,0,1,5.64,3.89l-3,3A13.63,13.63,0,0,0,32,17.6,14.27,14.27,0,0,0,25,19.28a12.2,12.2,0,0,0-4.81,4.64,13,13,0,0,0-1.75,6.71,12.83,12.83,0,0,0,1.75,6.65A12.37,12.37,0,0,0,25,42a14,14,0,0,0,6.9,1.69,14.29,14.29,0,0,0,7.94-2.18v-11Z"/><path class="cls-4" d="M89.6,23.44V36.53q0,4-2,5.87t-5.89,1.9a14.14,14.14,0,0,1-4.09-.58,8.16,8.16,0,0,1-3.14-1.67l1.31-2.12a7.76,7.76,0,0,0,2.62,1.44,9.74,9.74,0,0,0,3.21.53,5.44,5.44,0,0,0,3.93-1.25,5.18,5.18,0,0,0,1.27-3.83V35.61a5.94,5.94,0,0,1-2.38,1.76A8,8,0,0,1,81.4,38,8.26,8.26,0,0,1,77.47,37a6.85,6.85,0,0,1-2.76-2.6,7.78,7.78,0,0,1,0-7.63,6.7,6.7,0,0,1,2.76-2.59,8.37,8.37,0,0,1,3.93-.91,8,8,0,0,1,3.18.63A5.93,5.93,0,0,1,87,25.78V23.44ZM84.38,34.93a4.71,4.71,0,0,0,1.86-1.76,4.87,4.87,0,0,0,.67-2.56,4.59,4.59,0,0,0-1.46-3.55,5.86,5.86,0,0,0-7.51,0,4.63,4.63,0,0,0-1.46,3.55,4.87,4.87,0,0,0,.67,2.56A4.71,4.71,0,0,0,79,34.93a5.66,5.66,0,0,0,2.7.63A5.6,5.6,0,0,0,84.38,34.93Z"/><path class="cls-4" d="M108.23,23.44V38.59h-2.6V36.3a5.51,5.51,0,0,1-2.19,1.82,6.92,6.92,0,0,1-3,.64,6.66,6.66,0,0,1-4.78-1.67A6.54,6.54,0,0,1,94,32.16V23.44h2.74v8.4a4.72,4.72,0,0,0,1.06,3.33,4,4,0,0,0,3,1.13A4.54,4.54,0,0,0,104.23,35a5.17,5.17,0,0,0,1.26-3.72V23.44Z"/><path class="cls-4" d="M112.79,20a1.69,1.69,0,0,1-.53-1.26,1.75,1.75,0,0,1,.53-1.27,1.82,1.82,0,0,1,1.33-.53,1.88,1.88,0,0,1,1.33.5A1.67,1.67,0,0,1,116,18.7a1.79,1.79,0,0,1-1.86,1.82A1.84,1.84,0,0,1,112.79,20Zm0,3.43h2.74V38.59h-2.74Z"/><path class="cls-4" d="M130.34,24.84a6,6,0,0,1,1.67,4.6v9.15h-2.6v-2a4.36,4.36,0,0,1-2,1.61,7.49,7.49,0,0,1-3,.56,6.32,6.32,0,0,1-4.08-1.23,4.22,4.22,0,0,1-.07-6.44,7.19,7.19,0,0,1,4.63-1.22h4.35v-.54a3.53,3.53,0,0,0-1-2.72,4.35,4.35,0,0,0-3-.94,8.15,8.15,0,0,0-2.63.44,6.74,6.74,0,0,0-2.17,1.19l-1.15-2.06a8.25,8.25,0,0,1,2.8-1.44,11.54,11.54,0,0,1,3.46-.5A6.86,6.86,0,0,1,130.34,24.84Zm-2.73,11.1a4,4,0,0,0,1.66-2V31.84H125c-2.33,0-3.49.78-3.49,2.35a2.1,2.1,0,0,0,.89,1.8,4.1,4.1,0,0,0,2.45.65A5.08,5.08,0,0,0,127.61,35.94Z"/><path class="cls-4" d="M137.15,38.26A7.78,7.78,0,0,1,134.47,37l1.14-2.18A8.3,8.3,0,0,0,138,36a10.17,10.17,0,0,0,2.89.43c2.4,0,3.6-.69,3.6-2.06a1.33,1.33,0,0,0-.49-1.09,3.1,3.1,0,0,0-1.21-.58c-.49-.13-1.18-.26-2.08-.42a21.54,21.54,0,0,1-3-.65,4.64,4.64,0,0,1-2-1.26,3.52,3.52,0,0,1-.83-2.49,3.87,3.87,0,0,1,1.72-3.3,7.65,7.65,0,0,1,4.6-1.24,12.56,12.56,0,0,1,3,.37,8.23,8.23,0,0,1,2.49,1l-1.18,2.17a7.87,7.87,0,0,0-4.37-1.2,5.08,5.08,0,0,0-2.66.57,1.72,1.72,0,0,0-.91,1.52,1.46,1.46,0,0,0,.51,1.17,3.52,3.52,0,0,0,1.27.63q.77.2,2.13.45a22.61,22.61,0,0,1,3,.68,4.35,4.35,0,0,1,1.93,1.21,3.39,3.39,0,0,1,.8,2.4,3.77,3.77,0,0,1-1.76,3.27,8.27,8.27,0,0,1-4.78,1.22A12.9,12.9,0,0,1,137.15,38.26Z"/><path class="cls-4" d="M164.28,17.38V38.59h-2.63v-2.4a6,6,0,0,1-2.32,1.91,7.13,7.13,0,0,1-3.09.66,8,8,0,0,1-3.94-1,7,7,0,0,1-2.73-2.73,8.1,8.1,0,0,1-1-4.05,8,8,0,0,1,1-4,7,7,0,0,1,2.73-2.71,7.94,7.94,0,0,1,3.94-1,7.3,7.3,0,0,1,3,.61,5.86,5.86,0,0,1,2.28,1.82V17.38Zm-5.21,18.31a4.63,4.63,0,0,0,1.83-1.89,6.21,6.21,0,0,0,0-5.57,4.54,4.54,0,0,0-1.83-1.88,5.55,5.55,0,0,0-5.21,0A4.8,4.8,0,0,0,152,28.23a6.12,6.12,0,0,0,0,5.57,4.89,4.89,0,0,0,1.83,1.89,5.4,5.4,0,0,0,5.21,0Z"/><path class="cls-4" d="M182.4,31.93H170.11a4.74,4.74,0,0,0,1.75,3.21,5.75,5.75,0,0,0,3.73,1.22A5.64,5.64,0,0,0,180,34.53l1.51,1.77a6.68,6.68,0,0,1-2.56,1.83,9.61,9.61,0,0,1-7.67-.36A6.88,6.88,0,0,1,168.38,35a7.86,7.86,0,0,1-1-4,8,8,0,0,1,1-4,7.12,7.12,0,0,1,2.71-2.76,7.84,7.84,0,0,1,3.9-1,7.69,7.69,0,0,1,3.88,1A7,7,0,0,1,181.5,27a8.51,8.51,0,0,1,.95,4.06C182.45,31.31,182.43,31.59,182.4,31.93Zm-10.74-5.12A4.85,4.85,0,0,0,170.11,30h9.71a4.87,4.87,0,0,0-1.55-3.13,5.12,5.12,0,0,0-6.61,0Z"/><path class="cls-4" d="M185.54,17.38h2.74V38.59h-2.74Z"/><path class="cls-4" d="M193.57,38.26A7.93,7.93,0,0,1,190.88,37L192,34.81A8.06,8.06,0,0,0,194.46,36a10.15,10.15,0,0,0,2.88.43c2.4,0,3.6-.69,3.6-2.06a1.35,1.35,0,0,0-.48-1.09,3.15,3.15,0,0,0-1.22-.58c-.48-.13-1.17-.26-2.07-.42a21.72,21.72,0,0,1-3-.65,4.61,4.61,0,0,1-2-1.26,3.52,3.52,0,0,1-.83-2.49,3.89,3.89,0,0,1,1.71-3.3,7.7,7.7,0,0,1,4.61-1.24,12.54,12.54,0,0,1,3,.37,8.23,8.23,0,0,1,2.49,1L202,26.84a7.89,7.89,0,0,0-4.37-1.2,5.06,5.06,0,0,0-2.66.57,1.74,1.74,0,0,0-.92,1.52,1.47,1.47,0,0,0,.52,1.17,3.44,3.44,0,0,0,1.27.63q.76.2,2.13.45a23,23,0,0,1,3,.68,4.4,4.4,0,0,1,1.93,1.21,3.39,3.39,0,0,1,.8,2.4,3.79,3.79,0,0,1-1.76,3.27,8.3,8.3,0,0,1-4.79,1.22A12.78,12.78,0,0,1,193.57,38.26Z"/><path class="cls-4" d="M220.52,23.44V38.59h-2.6V36.3a5.51,5.51,0,0,1-2.19,1.82,6.93,6.93,0,0,1-3,.64A6.63,6.63,0,0,1,208,37.09a6.54,6.54,0,0,1-1.74-4.93V23.44H209v8.4a4.67,4.67,0,0,0,1.06,3.33,4,4,0,0,0,3,1.13A4.54,4.54,0,0,0,216.52,35a5.17,5.17,0,0,0,1.26-3.72V23.44Z"/><path class="cls-4" d="M229.78,24a7.78,7.78,0,0,1,3.4-.68V26l-.63,0a4.61,4.61,0,0,0-3.5,1.33A5.22,5.22,0,0,0,227.78,31v7.55H225V23.44h2.62V26A4.78,4.78,0,0,1,229.78,24Z"/><path class="cls-4" d="M235.32,38.2a1.88,1.88,0,0,1-.57-1.41,1.85,1.85,0,0,1,.57-1.39,1.91,1.91,0,0,1,1.38-.56,1.8,1.8,0,0,1,1.34.55,1.9,1.9,0,0,1,.54,1.4A1.88,1.88,0,0,1,238,38.2a1.81,1.81,0,0,1-1.32.56A1.91,1.91,0,0,1,235.32,38.2Z"/><path class="cls-4" d="M244.28,37.76A7.39,7.39,0,0,1,241.44,35a8.22,8.22,0,0,1,0-8,7.22,7.22,0,0,1,2.84-2.75,8.6,8.6,0,0,1,4.13-1,7.85,7.85,0,0,1,3.68.83,5.91,5.91,0,0,1,2.5,2.4l-2.09,1.34a4.74,4.74,0,0,0-1.77-1.63,5.11,5.11,0,0,0-2.35-.54,5.5,5.5,0,0,0-2.67.65,4.74,4.74,0,0,0-1.86,1.88,5.74,5.74,0,0,0-.67,2.78,5.82,5.82,0,0,0,.67,2.82,4.71,4.71,0,0,0,1.86,1.87,5.39,5.39,0,0,0,2.67.66,5.11,5.11,0,0,0,2.35-.54,4.82,4.82,0,0,0,1.77-1.63l2.09,1.31a6.07,6.07,0,0,1-2.5,2.42,7.86,7.86,0,0,1-3.68.84A8.39,8.39,0,0,1,244.28,37.76Z"/><path class="cls-4" d="M259.85,37.76A7.26,7.26,0,0,1,257,35a8.37,8.37,0,0,1,0-8,7.11,7.11,0,0,1,2.82-2.75,8.86,8.86,0,0,1,8.1,0,7.19,7.19,0,0,1,2.8,2.75,8.37,8.37,0,0,1,0,8,7.35,7.35,0,0,1-2.8,2.76,8.7,8.7,0,0,1-8.1,0Zm6.67-2.07a4.78,4.78,0,0,0,1.81-1.89,6.21,6.21,0,0,0,0-5.57,4.68,4.68,0,0,0-1.81-1.88,5.59,5.59,0,0,0-5.23,0,4.8,4.8,0,0,0-1.83,1.88,6.12,6.12,0,0,0,0,5.57,4.89,4.89,0,0,0,1.83,1.89,5.44,5.44,0,0,0,5.23,0Z"/><path class="cls-4" d="M298.33,25A6.67,6.67,0,0,1,300,29.87v8.72h-2.74V30.18a4.75,4.75,0,0,0-1-3.31,3.74,3.74,0,0,0-2.9-1.12A4.32,4.32,0,0,0,290,27.06a5.2,5.2,0,0,0-1.23,3.72v7.81h-2.75V30.18a4.8,4.8,0,0,0-1-3.31,3.74,3.74,0,0,0-2.9-1.12,4.35,4.35,0,0,0-3.32,1.31,5.2,5.2,0,0,0-1.23,3.72v7.81h-2.74V23.44h2.63V25.7a5.35,5.35,0,0,1,2.17-1.79,7.3,7.3,0,0,1,3.06-.61,6.76,6.76,0,0,1,3.14.71A5,5,0,0,1,288,26.1,5.78,5.78,0,0,1,290.35,24a7.73,7.73,0,0,1,3.45-.74A6.18,6.18,0,0,1,298.33,25Z"/></g></g></g></svg>