<svg id="Capa_1" data-name="Capa 1" xmlns="http://www.w3.org/2000/svg" xmlns:xlink="http://www.w3.org/1999/xlink" viewBox="0 0 149.11 36.48"><defs><style>.cls-1{fill:#e0a300;}.cls-1,.cls-2{fill-rule:evenodd;}.cls-2{fill:url(#Degradado_sin_nombre_2);}.cls-3{fill:#107884;}.cls-4{fill:#7a7a7e;}</style><linearGradient id="Degradado_sin_nombre_2" x1="21.85" y1="18.16" x2="24.97" y2="36.86" gradientUnits="userSpaceOnUse"><stop offset="0" stop-color="#127581"/><stop offset="0.31" stop-color="#0d7989"/><stop offset="1" stop-color="#128099"/></linearGradient></defs><path class="cls-1" d="M16.15,3.1A14.12,14.12,0,0,0,9.67,7.84c1.37.3,2.8.54,4.29.73A58.61,58.61,0,0,1,16.15,3.1Z" transform="translate(-3.91 -1.76)"/><path class="cls-1" d="M23.19,10.6h-.33c0,.83.06,2.39.12,4.22a19.73,19.73,0,0,1,4.36-2.09,21,21,0,0,1,2.25-.63,19.8,19.8,0,0,0-.61-2C27.12,10.35,25.18,10.52,23.19,10.6Z" transform="translate(-3.91 -1.76)"/><path class="cls-1" d="M35.22,8.79a46.49,46.49,0,0,1-4.69.87c.12.37.25.74.35,1.06s.18.68.28,1.09a35.33,35.33,0,0,1,5.36-.4A20,20,0,0,0,35.22,8.79Z" transform="translate(-3.91 -1.76)"/><path class="cls-1" d="M21,10.53a57.5,57.5,0,0,1-5.81-.29,31.31,31.31,0,0,0-1.3,8.57A13.58,13.58,0,0,1,16.69,21a22.94,22.94,0,0,1,4.65-5c0-2.34,0-4.44-.05-5.46Z" transform="translate(-3.91 -1.76)"/><path class="cls-1" d="M6.1,16.27A29.81,29.81,0,0,1,12,17.89a32.92,32.92,0,0,1,1.1-6.79c.09-.32.22-.69.34-1.06a46.49,46.49,0,0,1-4.69-.87A24.26,24.26,0,0,0,6.1,16.27Z" transform="translate(-3.91 -1.76)"/><path class="cls-1" d="M28,2.69c.77,1.74,1.57,3.68,2.22,5.54,1.37-.23,2.69-.52,3.95-.85C32.45,5.53,30.45,3.52,28,2.69Z" transform="translate(-3.91 -1.76)"/><path class="cls-1" d="M25.83,2.1a17.56,17.56,0,0,0-2.73-.34L23,9a50.69,50.69,0,0,0,5.51-.47A48.8,48.8,0,0,0,25.83,2.1Z" transform="translate(-3.91 -1.76)"/><path class="cls-1" d="M21,9h.36V1.83a21.72,21.72,0,0,0-2.95.57C18,3.29,16.69,6,15.67,8.76,17.39,8.92,19.16,9,21,9Z" transform="translate(-3.91 -1.76)"/><path class="cls-2" d="M39.18,13.44c-6.45-.09-16-.36-22.28,11.07C13.8,19.72,9.29,18.85,4,18a18.24,18.24,0,1,0,35.15-4.51Z" transform="translate(-3.91 -1.76)"/><path class="cls-3" d="M55.59,18.38a3.21,3.21,0,0,0-2.38-.86c-1.13,0-1.76.35-1.76.95s.57,1,1.8,1.06c1.81.11,4.12.52,4.12,3.08,0,1.7-1.39,3.16-4.14,3.16a5.63,5.63,0,0,1-4.45-1.71L50,22.36a4.8,4.8,0,0,0,3.32,1.34c.9,0,1.73-.35,1.73-1.05s-.54-1-1.91-1.11c-1.81-.14-4-.8-4-3s2.3-3,4.06-3a5.19,5.19,0,0,1,3.75,1.26Z" transform="translate(-3.91 -1.76)"/><path class="cls-3" d="M61.13,21.48c.16,1.19,1.19,2.05,2.87,2.05a4,4,0,0,0,2.58-.9l1.52,1.5A5.87,5.87,0,0,1,64,25.69c-3.31,0-5.29-2-5.29-5.13a4.81,4.81,0,0,1,5.12-5c3.22,0,5.23,2,4.86,6Zm5.23-2a2.2,2.2,0,0,0-2.49-1.88,2.6,2.6,0,0,0-2.7,1.88Z" transform="translate(-3.91 -1.76)"/><path class="cls-3" d="M72.47,21.48c.16,1.19,1.19,2.05,2.87,2.05a4,4,0,0,0,2.58-.9l1.52,1.5a5.87,5.87,0,0,1-4.14,1.56c-3.31,0-5.29-2-5.29-5.13a4.82,4.82,0,0,1,5.12-5c3.22,0,5.23,2,4.86,6Zm5.23-2a2.2,2.2,0,0,0-2.49-1.88,2.6,2.6,0,0,0-2.7,1.88Z" transform="translate(-3.91 -1.76)"/><path class="cls-3" d="M91.8,11.8V25.44H89.57l-.15-1.33a3.51,3.51,0,0,1-3.11,1.55,4.73,4.73,0,0,1-5-5c0-3.32,2.09-5,4.9-5a4,4,0,0,1,3.17,1.55V11.8Zm-8.06,8.82a2.76,2.76,0,1,0,5.52,0,2.75,2.75,0,0,0-2.79-2.81A2.65,2.65,0,0,0,83.74,20.62Z" transform="translate(-3.91 -1.76)"/><path class="cls-4" d="M101,25.44V20.15a2.34,2.34,0,0,0-2.25-2.61,2.4,2.4,0,0,0-2.32,2.61v5.29h-2V15.8h1.87l.14,1.29a2.92,2.92,0,0,1,2.69-1.45,3,3,0,0,1,3,1.94,3.51,3.51,0,0,1,3.3-1.92c2.65,0,4.08,1.68,4.08,4.45v5.33h-2V20.11c0-1.42-.7-2.55-2.13-2.55a2.4,2.4,0,0,0-2.34,2.59v5.29Z" transform="translate(-3.91 -1.76)"/><path class="cls-4" d="M119.88,15.82h2v9.62h-1.91l-.1-1.56a3.78,3.78,0,0,1-3.31,1.81,4.67,4.67,0,0,1-4.94-5.07,4.72,4.72,0,0,1,5-5,3.71,3.71,0,0,1,3.27,1.74Zm-6.3,4.8a3,3,0,0,0,3.12,3.2c4.16,0,4.16-6.38,0-6.38A3,3,0,0,0,113.58,20.62Z" transform="translate(-3.91 -1.76)"/><path class="cls-4" d="M127.67,13.05v2.79h2.81v1.74h-2.83v4.58c0,1,.45,1.58,1.39,1.58a2.83,2.83,0,0,0,1.23-.33l.58,1.72a4.59,4.59,0,0,1-1.93.43c-2.09.06-3.28-1.13-3.28-3.4V17.58h-1.85V15.84h1.85V13.26Z" transform="translate(-3.91 -1.76)"/><path class="cls-4" d="M134.38,15.82l.14,1.27a3,3,0,0,1,2.83-1.49,3.71,3.71,0,0,1,2.38.82l-.91,1.76a2.64,2.64,0,0,0-4.3,2.05v5.21h-2V15.82Z" transform="translate(-3.91 -1.76)"/><path class="cls-4" d="M143.36,13a1.25,1.25,0,0,1-2.5,0A1.25,1.25,0,0,1,143.36,13Zm-2.26,2.79v9.66h2V15.78Z" transform="translate(-3.91 -1.76)"/><path class="cls-4" d="M153,15.82v.94l-4.85,6.71H153v2h-8v-.82l5-7h-4.65V15.82Z" transform="translate(-3.91 -1.76)"/></svg>